# Generated by generate_charuco_asset.py - do not edit by hand.
# Board frame: +X image right, +Y image DOWN, +Z INTO the board.
# The textured face is -Z; the backing face is +Z.
mtllib charuco.mtl
v -0.012000 -0.012000 0.000000
v 0.187000 -0.012000 0.000000
v 0.187000 0.257000 0.000000
v -0.012000 0.257000 0.000000
v -0.012000 -0.012000 0.002000
v 0.187000 -0.012000 0.002000
v 0.187000 0.257000 0.002000
v -0.012000 0.257000 0.002000
vt 0.0 1.0
vt 1.0 1.0
vt 1.0 0.0
vt 0.0 0.0
vn 0.0 0.0 -1.0
vn 0.0 0.0 1.0
usemtl charuco
f 1/1/1 4/4/1 3/3/1 2/2/1
usemtl charuco_backing
f 5/1/2 6/2/2 7/3/2 8/4/2
